PathFileType	4	(X/Y/Z)	C:/Users/beibeiliu/ov580/test_trc/capture2\sequence.4_training_dense_right.trc
DataRate	CameraRate	NumFrames	NumMarkers	Units	OrigDataRate	OrigDataStartFrame	OrigNumFrames
120	120	22	19	mm	120	178	355
Frame#	Time	ThumbCMC			ThumbMCP			ThumbIP			ThumbTip			IndexMCP			IndexPIP			IndexTip			MiddleMCP			MiddlePIP			MiddleTip			RingMCP			RingPIP			RingTip			PinkyMCP			PinkyPIP			PinkyTip			BackHand1			BackHand2			BackHand3	
		X0	Y0	Z0	X1	Y1	Z1	X2	Y2	Z2	X3	Y3	Z3	X4	Y4	Z4	X5	Y5	Z5	X6	Y6	Z6	X7	Y7	Z7	X8	Y8	Z8	X9	Y9	Z9	X10	Y10	Z10	X11	Y11	Z11	X12	Y12	Z12	X13	Y13	Z13	X14	Y14	Z14	X15	Y15	Z15	X16	Y16	Z16	X17	Y17	Z17	X18	Y18	Z18	
177	1.475	120.964	31.4685	-10.9549	101.403	18.3501	-38.1294	102.064	8.47722	-66.0529	108.679	-6.70881	-85.1601	151.234	41.9457	-81.5968	153.988	36.4233	-107.463	157.402	34.3344	-128.972	146.089	8.83583	-81.1693	115.204	-5.32327	-75.5771	121.742	2.57992	-38.7784	147.361	-12.1054	-72.201	121.815	-20.313	-56.7221	130.954	-3.78684	-27.0861	154.815	-24.814	-60.9236	129.744	-25.1613	-46.9145	138.526	-5.40847	-20.9096	180.502	9.76306	-28.8147	180.205	8.668	2.69803	161.569	37.1184	-13.7518	
178	1.48333	120.426	33.2258	-11.2095	101.592	17.887	-41.3302	95.5665	9.03387	-66.7607	110.074	-5.36782	-85.7862	145.202	46.8245	-79.0562	147.71	43.9675	-105.271	151.408	41.6165	-131.414	143.074	14.9745	-82.0721	117.709	-3.8768	-79.5224	122.309	5.57942	-40.325	144.366	-4.45596	-73.9942	125.034	-18.8631	-56.5858	132.378	-2.08815	-27.9959	156.798	-14.2408	-62.007	132.185	-20.6696	-46.7709	139.167	-4.00833	-19.7839	177.558	18.3281	-32.2895	180.045	17.9734	-1.31044	158.382	40.6927	-16.9156	
179	1.49167	115.919	34.2685	-14.9569	101.71	15.6076	-38.7905	98.5283	5.86149	-61.9174	112.773	-6.14702	-82.2814	142.417	48.2709	-84.5375	138.125	48.8016	-107.646	145.981	42.8739	-128.593	142.287	18.6254	-83.3251	122.175	-6.64205	-80.2367	122.741	1.40598	-43.1628	148.729	-3.12239	-74.0965	125.292	-14.2353	-56.5216	133.846	3.54811	-28.4324	154.872	-10.4658	-63.2616	135.864	-18.1263	-47.0905	142.877	2.23219	-20.3503	177.49	24.9312	-32.6251	177.737	25.0242	-0.359488	153.177	47.8723	-17.0285	
180	1.5	113.751	30.4773	-13.754	98.3467	10.6165	-36.7029	99.4159	0.768847	-65.1395	111.597	-10.1887	-86.1525	134.575	48.0357	-80.222	134.513	46.8237	-109.107	136.502	47.4039	-132.306	138.626	17.3253	-84.5202	121.177	-6.96693	-78.8836	123.746	0.420227	-42.417	146.96	3.54695	-73.8622	129.597	-16.4392	-53.601	133.706	1.71019	-28.9587	161.821	-5.39207	-63.2427	140.19	-18.1415	-45.459	146.019	3.32331	-21.1728	175.966	32.2143	-37.2299	175.288	34.0634	0.235437	147.369	51.2439	-17.1191	
181	1.50833	109.067	25.8841	-15.7912	98.7499	4.39959	-39.8289	99.1594	-5.85913	-63.2431	116.193	-12.6118	-84.036	124.214	47.7286	-82.359	124.679	45.5631	-110.052	128.5	45.1184	-131.689	139.188	18.6197	-83.6026	125.812	-11.0098	-78.5915	122.097	-1.48383	-41.9521	152.78	3.58349	-74.1831	136.906	-17.9048	-54.8895	133.314	2.97453	-30.2472	163.519	-4.38687	-64.3609	145.475	-15.282	-44.9329	144.565	3.38231	-21.7757	166.293	41.21	-34.1632	167.515	41.8769	-3.73356	139.299	49.8579	-17.7223	
182	1.51667	104.472	21.0347	-14.899	99.9391	-1.49395	-37.1262	101.678	-11.6774	-69.5681	120.778	-15.5131	-87.7292	117.522	45.8489	-86.3764	119.735	43.5067	-109.784	124.187	42.3098	-131.81	135.526	19.2304	-83.7201	131.709	-12.6531	-80.7915	123.761	-4.98641	-41.6949	150.145	8.3581	-74.8247	140.737	-18.5526	-55.7687	140.017	2.34756	-28.5192	164.242	-0.246342	-66.0419	149.415	-13.5543	-45.6754	145.592	4.06186	-22.2993	162.127	46.1284	-38.8973	165.05	43.9973	-2.77527	130.916	52.4534	-19.1682	
183	1.525	106.965	15.7657	-15.2646	102.114	-7.32346	-40.6174	102.822	-16.7851	-67.5182	121.943	-18.5075	-88.8331	116.056	41.1565	-81.8838	112.046	39.07	-108.775	114.919	40.0204	-132.097	137.286	16.1464	-84.677	133.897	-16.7142	-79.194	130.769	-8.3037	-42.6479	151.156	3.52986	-77.2173	143.322	-18.6304	-55.5825	138.754	-0.170858	-30.1691	169.196	3.85178	-64.8468	155.755	-14.7026	-45.0261	146.361	8.26401	-22.4382	158.374	47.2496	-38.0558	159.722	45.7459	-2.76062	125.071	48.3213	-21.0257	
184	1.53333	103.407	10.3171	-18.155	104.589	-10.398	-42.8141	107.056	-20.5849	-69.4749	125.634	-19.0536	-86.9599	109.218	36.1608	-85.5602	109.659	35.0146	-111.716	114.062	36.2449	-133.338	136.019	12.7997	-86.7788	138.65	-16.4016	-81.837	131.971	-12.3674	-41.9524	151.327	6.90918	-75.7624	145.136	-19.0434	-59.0677	141.341	-2.03227	-29.7741	166.499	7.84012	-65.0936	161.084	-15.1994	-45.0649	152.147	4.92649	-21.3436	152.414	45.8301	-37.1537	151.398	46.6844	-6.07742	121.912	43.501	-20.5769	
185	1.54167	105.036	4.80785	-15.363	103.223	-18.5713	-39.9403	110.822	-23.5677	-66.7861	128.202	-22.0588	-87.8025	107.094	31.6795	-87.0885	106.295	30.7328	-108.554	111.93	32.2868	-137.827	131.63	9.62351	-88.462	140.055	-19.7463	-79.6748	134.85	-17.1132	-46.0599	152.215	3.30702	-77.4722	153.118	-19.397	-62.2136	139.892	-6.9886	-31.4693	165.862	10.5397	-65.8869	159.994	-13.9031	-46.9881	152.324	3.44957	-23.2008	147.874	45.8159	-39.4192	149.538	44.62	-1.98121	116.707	40.0449	-18.5874	
186	1.55	104.76	-1.60064	-13.7797	105.329	-23.7912	-41.2726	113.267	-27.4106	-69.4543	129.281	-24.8279	-88.8222	103.713	25.8276	-82.8535	103.394	24.6212	-110.442	108.83	26.925	-135.667	131.008	10.0123	-86.1441	139.474	-21.0948	-84.5961	134.995	-19.7795	-43.9254	153.771	4.22444	-78.101	154.759	-19.9006	-61.9851	141.572	-10.5262	-32.2161	169.404	7.45137	-67.5758	159.821	-13.3029	-49.7777	148.026	0.443729	-25.1616	143.691	43.8899	-35.9324	145.857	44.8585	-3.18767	112.951	36.117	-23.1519	
187	1.55833	105.049	-7.25153	-12.5222	108.913	-26.4029	-41.4277	113.169	-34.8084	-67.0842	128.974	-29.5481	-89.2958	104.289	22.7505	-81.3953	99.5719	21.2474	-111.295	106.932	24.6362	-133.611	131.334	7.56825	-85.3505	139.948	-24.9089	-80.7177	136.812	-21.2039	-44.7437	150.799	3.00832	-78.1401	153.078	-21.2714	-63.8931	141.225	-11.1078	-30.6983	168.07	6.33266	-67.3395	163.413	-14.6177	-46.2044	147.038	1.56957	-22.2773	142.668	44.2306	-34.4961	140.732	42.1929	-4.95302	110.552	30.2083	-21.8322	
188	1.56667	105.522	-10.894	-12.1361	107.061	-33.6497	-39.5157	114.26	-35.2659	-69.4077	128.705	-30.6112	-89.5143	98.6788	18.4909	-82.5181	100.012	17.7878	-109.698	104.487	21.3235	-132.401	128.944	4.23217	-87.4791	145.046	-21.6796	-83.6243	137.378	-21.9543	-43.936	147.463	3.77545	-76.5981	155.865	-21.8993	-62.2728	143.475	-11.9797	-29.7393	161.808	9.93121	-65.9917	160.337	-14.9994	-48.4866	143.767	-0.381271	-23.3161	138.569	40.6825	-31.9684	135.357	40.0568	-4.73958	110.508	28.7235	-16.3781	
189	1.575	101.797	-15.7459	-14.8094	107.253	-33.6567	-42.4694	113.252	-38.1112	-71.883	129.217	-28.725	-89.3162	97.8959	14.7257	-78.8748	95.7058	14.4269	-108.658	98.7761	16.6909	-130.863	127.42	3.61641	-86.4822	140.684	-27.3254	-80.5038	136.846	-26.5328	-45.5104	147.276	0.665237	-76.9562	152.23	-23.0796	-60.9627	144.492	-12.3461	-30.0282	163.995	12.004	-64.6866	158.553	-14.4663	-48.2588	145.792	-1.92961	-25.3722	136.027	40.9958	-32.2118	132.938	37.7601	-1.26337	105.275	23.2613	-17.1195	
190	1.58333	102.718	-15.196	-9.94965	107.178	-32.2379	-41.2351	111.741	-37.3764	-67.5653	127.014	-27.5769	-90.688	95.3079	14.5893	-80.1717	95.1363	14.0603	-106.084	98.7229	17.3935	-131.982	126.163	6.28147	-82.9749	142.468	-24.77	-79.9307	137.215	-23.07	-43.1535	146.363	0.514289	-75.7926	152.136	-22.3759	-60.7944	140.068	-10.7871	-28.1124	158.439	12.3004	-64.0821	159.456	-14.674	-48.8666	145.94	-1.02412	-24.5175	135.986	39.9021	-33.7851	133.197	36.9806	1.83083	103.192	22.9672	-16.2641	
191	1.59167	102.939	-10.9068	-14.6362	107.639	-28.7588	-36.9891	109.274	-34.5254	-70.7127	121.087	-29.1589	-89.1809	98.3846	19.0232	-82.4671	96.0626	17.5347	-105.123	97.1374	18.8582	-128.078	128.774	5.29043	-86.1482	141.34	-21.7089	-82.493	135.086	-23.631	-45.0145	147.153	6.88145	-74.9547	150.596	-21.1479	-61.2626	137.979	-11.6465	-31.0541	162.633	11.2065	-65.5798	161.813	-13.5348	-46.7296	141.474	1.45404	-25.5875	131.981	41.6113	-32.2726	132.773	37.3221	0.5161	107.621	26.5154	-18.9847	
192	1.6	100.878	-9.30601	-13.6328	103.434	-29.268	-40.3976	108.565	-27.802	-69.0106	119.053	-25.1897	-89.6906	94.4424	19.3626	-79.9591	98.0623	20.8291	-102.854	98.8656	22.0216	-132.225	128.022	8.62647	-85.9304	138.368	-21.0165	-81.6677	133.012	-22.9129	-45.4408	145.131	4.2217	-76.8032	153.109	-19.2629	-61.6261	135.111	-9.15549	-31.341	157.846	10.5653	-65.8035	158.831	-12.9367	-47.1263	145.722	2.85515	-23.3872	134.568	41.9947	-32.4526	132.537	39.4999	-3.16922	105.059	28.203	-14.0661	
193	1.60833	102.969	-5.95729	-10.8685	103	-23.1068	-43.8497	105.922	-27.2341	-66.4473	117.113	-20.2876	-91.3402	95.5481	23.1275	-77.6153	94.8417	23.4666	-103.685	96.3956	24.2242	-132.619	125.544	9.90639	-86.273	136.517	-16.7404	-85.3464	132.4	-20.2484	-48.6371	145.717	12.2454	-75.4837	147.916	-17.2302	-61.6173	134.933	-5.79614	-31.275	163.173	16.4312	-65.0218	158.934	-10.1211	-46.1942	143.885	8.1231	-24.0736	136.193	47.6643	-35.7324	136.74	44.6331	0.199232	106.173	31.1472	-14.3802	
194	1.61667	99.6101	-3.13996	-13.1496	100.542	-19.5499	-43.4567	103.739	-20.7176	-71.3268	115.987	-14.5776	-90.47	97.5496	30.3933	-82.4638	95.1032	29.6659	-107.015	101.397	32.2763	-131.011	128.502	14.6699	-88.2891	140.73	-13.4337	-82.9238	133.276	-14.9885	-47.0702	146.059	13.6935	-76.6387	151.57	-12.1636	-62.7692	139.789	-2.80915	-32.5565	157.945	16.3452	-67.3874	161.088	-5.22347	-49.98	142.238	7.22906	-28.2192	134.884	48.6312	-36.253	134.699	48.1205	-2.26225	104.585	35.727	-18.572	
195	1.625	100.679	4.21668	-16.5926	101.713	-11.0282	-45.3253	104.153	-13.8884	-69.5855	117.283	-5.4212	-90.2721	97.2509	35.3054	-83.4547	94.3367	35.9535	-107.948	97.2383	36.9449	-136.009	124.959	19.1201	-88.3819	137.489	-9.71302	-83.6596	135.45	-9.30828	-48.3722	147.955	17.7491	-77.4381	151.173	-7.53378	-64.4261	137.223	2.4733	-33.8232	160.245	21.411	-68.554	161.306	-1.13676	-50.4245	139.09	13.3408	-28.143	133.027	51.2595	-33.1441	135.626	50.0374	-2.72657	107.034	39.4572	-17.6888	
196	1.63333	100.363	8.00901	-15.797	100.993	-4.65568	-46.2109	103.873	-5.80626	-70.9529	114.012	0.216739	-93.7472	95.3485	42.8256	-83.7024	95.2085	43.288	-107.676	97.5963	45.1628	-134.195	126.653	25.966	-89.4699	138.182	-3.06648	-85.8993	131.249	-3.25261	-47.8716	143.854	24.8105	-78.9914	151.122	-2.583	-64.6496	138.16	8.33905	-34.7425	157.146	28.9595	-67.9161	157.077	3.65018	-49.9305	143.92	16.7772	-25.8594	136.973	60.9352	-35.2258	137.106	54.1315	0.544179	107.656	44.7615	-18.7828	
197	1.64167	100.54	13.5667	-14.7007	98.4919	2.38243	-48.6392	100.314	3.32593	-74.6121	113.808	9.92685	-91.3976	96.3539	49.8873	-80.6509	96.0538	53.0008	-109.454	101.894	55.4067	-131.215	122.278	38.7889	-87.3862	134.347	9.38878	-94.4247	132.245	1.27428	-53.8258	141.875	31.9868	-79.2353	148.965	4.10964	-65.5896	134.937	12.1757	-38.511	161.747	37.1103	-68.5976	155.684	9.61122	-52.8377	140.902	23.912	-32.091	136.276	63.5574	-34.699	134.414	56.852	1.53458	103.949	50.8992	-17.6824	
198	1.65	101.902	21.2335	-15.0165	100.022	10.9224	-43.6373	99.9319	15.402	-73.4926	113.107	26.1558	-96.135	94.2604	58.9802	-76.6612	97.0996	64.0202	-106.139	98.0307	67.288	-133.174	124.769	53.1828	-88.7582	130.157	22.3787	-100.129	132.422	5.46439	-66.9735	143.824	43.1055	-78.6875	146.288	12.3664	-69.034	134.708	19.1668	-42.0492	159.125	44.0172	-70.017	155.988	17.786	-53.9197	142.96	30.4409	-30.8448	136.884	70.2522	-30.4117	134.566	65.0336	-1.59174	108.742	57.3362	-14.8819	
